<?xml version="1.0" encoding="UTF-8" standalone="no"?>
<svg
   xmlns:dc="http://purl.org/dc/elements/1.1/"
   xmlns:cc="http://creativecommons.org/ns#"
   xmlns:rdf="http://www.w3.org/1999/02/22-rdf-syntax-ns#"
   xmlns:svg="http://www.w3.org/2000/svg"
   xmlns="http://www.w3.org/2000/svg"
   xmlns:sodipodi="http://sodipodi.sourceforge.net/DTD/sodipodi-0.dtd"
   xmlns:inkscape="http://www.inkscape.org/namespaces/inkscape"
   version="1.1"
   width="2383.94pt"
   height="1683.78pt"
   viewBox="0 0 2383.94 1683.78"
   id="svg67"
   sodipodi:docname="Plexi_laser.svg"
   inkscape:version="1.0.1 (c497b03c, 2020-09-10)">
  <metadata
     id="metadata73">
    <rdf:RDF>
      <cc:Work
         rdf:about="">
        <dc:format>image/svg+xml</dc:format>
        <dc:type
           rdf:resource="http://purl.org/dc/dcmitype/StillImage" />
      </cc:Work>
    </rdf:RDF>
  </metadata>
  <defs
     id="defs71" />
  <sodipodi:namedview
     pagecolor="#ffffff"
     bordercolor="#666666"
     borderopacity="1"
     objecttolerance="10"
     gridtolerance="10"
     guidetolerance="10"
     inkscape:pageopacity="0"
     inkscape:pageshadow="2"
     inkscape:window-width="1264"
     inkscape:window-height="779"
     id="namedview69"
     showgrid="false"
     inkscape:zoom="0.28418201"
     inkscape:cx="-134.95376"
     inkscape:cy="1090.6636"
     inkscape:window-x="0"
     inkscape:window-y="25"
     inkscape:window-maximized="0"
     inkscape:current-layer="svg67" />
  <g
     enable-background="new"
     id="g65"
     transform="translate(-485.60426,-324.6159)">
    <g
       id="Layer-1"
       data-name="20_ALL_FEATURES">
      <path
         transform="matrix(1,0,0,-1,0,1683.78)"
         stroke-width="0.99213"
         stroke-linecap="round"
         stroke-linejoin="round"
         fill="none"
         stroke="#000000"
         d="M 490.2726,1325.8814 V 461.31446"
         id="path18" />
    </g>
    <g
       id="g23"
       data-name="20_ALL_FEATURES">
      <path
         transform="matrix(1,0,0,-1,0,1683.78)"
         stroke-width="0.99213"
         stroke-linecap="round"
         stroke-linejoin="round"
         fill="none"
         stroke="#000000"
         d="m 518.6191,432.968 h 878.7402"
         id="path21" />
    </g>
    <g
       id="g27"
       data-name="20_ALL_FEATURES">
      <path
         transform="matrix(1,0,0,-1,0,1683.78)"
         stroke-width="0.99213"
         stroke-linecap="round"
         stroke-linejoin="round"
         fill="none"
         stroke="#000000"
         d="M 1425.7057,461.31446 V 1325.8814"
         id="path25" />
    </g>
    <g
       id="g31"
       data-name="20_ALL_FEATURES">
      <path
         transform="matrix(1,0,0,-1,0,1683.78)"
         stroke-width="0.99213"
         stroke-linecap="round"
         stroke-linejoin="round"
         fill="none"
         stroke="#000000"
         d="M 1397.3593,1354.2278 H 518.6191"
         id="path29" />
    </g>
    <g
       id="g35"
       data-name="20_ALL_FEATURES">
      <path
         transform="matrix(1,0,0,-1,0,1683.78)"
         stroke-width="0.99213"
         stroke-linecap="round"
         stroke-linejoin="round"
         fill="none"
         stroke="#000000"
         d="m 1397.3593,432.968 c 15.6552,0 28.3464,12.69113 28.3464,28.34646"
         id="path33" />
    </g>
    <g
       id="g39"
       data-name="20_ALL_FEATURES">
      <path
         transform="matrix(1,0,0,-1,0,1683.78)"
         stroke-width="0.99213"
         stroke-linecap="round"
         stroke-linejoin="round"
         fill="none"
         stroke="#000000"
         d="m 1425.7057,1325.8814 c 0,15.6554 -12.6912,28.3464 -28.3464,28.3464"
         id="path37" />
    </g>
    <g
       id="g43"
       data-name="20_ALL_FEATURES">
      <path
         transform="matrix(1,0,0,-1,0,1683.78)"
         stroke-width="0.99213"
         stroke-linecap="round"
         stroke-linejoin="round"
         fill="none"
         stroke="#000000"
         d="m 518.6191,1354.2278 c -15.65534,0 -28.3465,-12.691 -28.3465,-28.3464"
         id="path41" />
    </g>
    <g
       id="g47"
       data-name="20_ALL_FEATURES">
      <path
         transform="matrix(1,0,0,-1,0,1683.78)"
         stroke-width="0.99213"
         stroke-linecap="round"
         stroke-linejoin="round"
         fill="none"
         stroke="#000000"
         d="m 490.2726,461.31446 c 0,-15.65533 12.69116,-28.34646 28.3465,-28.34646"
         id="path45" />
    </g>
    <g
       id="g51"
       data-name="20_ALL_FEATURES">
      <path
         transform="matrix(1,0,0,-1,0,1683.78)"
         stroke-width="0.99213"
         stroke-linecap="round"
         stroke-linejoin="round"
         fill="none"
         stroke="#000000"
         d="m 524.997,461.31446 c 0,3.52243 -2.85543,6.37793 -6.3779,6.37793 -3.5225,0 -6.378,-2.8555 -6.378,-6.37793 0,-3.52246 2.8555,-6.37796 6.378,-6.37796 3.52247,0 6.3779,2.8555 6.3779,6.37796"
         id="path49" />
    </g>
    <g
       id="g55"
       data-name="20_ALL_FEATURES">
      <path
         transform="matrix(1,0,0,-1,0,1683.78)"
         stroke-width="0.99213"
         stroke-linecap="round"
         stroke-linejoin="round"
         fill="none"
         stroke="#000000"
         d="m 524.997,1325.8814 c 0,3.5224 -2.85543,6.3779 -6.3779,6.3779 -3.5225,0 -6.378,-2.8555 -6.378,-6.3779 0,-3.5225 2.8555,-6.378 6.378,-6.378 3.52247,0 6.3779,2.8555 6.3779,6.378"
         id="path53" />
    </g>
    <g
       id="g59"
       data-name="20_ALL_FEATURES">
      <path
         transform="matrix(1,0,0,-1,0,1683.78)"
         stroke-width="0.99213"
         stroke-linecap="round"
         stroke-linejoin="round"
         fill="none"
         stroke="#000000"
         d="m 1403.7372,1325.8814 c 0,3.5224 -2.8555,6.3779 -6.3779,6.3779 -3.5225,0 -6.378,-2.8555 -6.378,-6.3779 0,-3.5225 2.8555,-6.378 6.378,-6.378 3.5224,0 6.3779,2.8555 6.3779,6.378"
         id="path57" />
    </g>
    <g
       id="g63"
       data-name="20_ALL_FEATURES">
      <path
         transform="matrix(1,0,0,-1,0,1683.78)"
         stroke-width="0.99213"
         stroke-linecap="round"
         stroke-linejoin="round"
         fill="none"
         stroke="#000000"
         d="m 1403.7372,461.31446 c 0,3.52243 -2.8555,6.37793 -6.3779,6.37793 -3.5225,0 -6.378,-2.8555 -6.378,-6.37793 0,-3.52246 2.8555,-6.37796 6.378,-6.37796 3.5224,0 6.3779,2.8555 6.3779,6.37796"
         id="path61" />
    </g>
  </g>
</svg>
